<?xml version="1.0" encoding="UTF-8"?>
<svg viewBox="0 0 650 500" xmlns="http://www.w3.org/2000/svg">
 <g transform="rotate(60.193 306.45 246.46)" fill="#007fff">
  <path d="m306.89 37.392c0.94199 0.1846 1.455 2.7646 1.258 7.1154-0.198 4.3499-1.145 10.472-3.273 17.442-1.747 5.7175-4.299 11.985-7.705 18.194-2.929 5.3403-6.202 10.123-9.486 14.177-3.285 4.0546-6.576 7.3845-9.524 9.9345-2.949 2.55-5.55 4.327-7.501 5.334s-3.247 1.253-3.683 0.706c-0.435-0.546 0.024994-1.83 1.146-3.714 1.12-1.886 2.897-4.378 5.058-7.4165 2.161-3.0386 4.705-6.6271 7.373-10.698 2.668-4.0694 5.457-8.6219 8.154-13.539 3.137-5.7188 5.802-11.302 8.011-16.359 2.697-6.1724 4.737-11.554 6.361-15.352 1.625-3.7976 2.869-6.0097 3.811-5.8251z"/>
  <path d="m307.98 39.816c0.92502-0.1493 2.108 1.9759 3.639 5.6108 1.531 3.6337 3.444 8.7784 5.988 14.687 2.083 4.841 4.604 10.192 7.585 15.684 2.564 4.7215 5.223 9.1012 7.772 13.022 2.548 3.9207 4.981 7.3822 7.05 10.314 2.068 2.9318 3.769 5.3358 4.836 7.1488 1.068 1.811 1.498 3.037 1.063 3.543-0.436 0.505-1.7 0.23801-3.594-0.767s-4.413-2.754-7.26-5.244c-2.847-2.491-6.017-5.7281-9.169-9.6504-3.152-3.9231-6.281-8.5324-9.064-13.661-3.237-5.9628-5.638-11.958-7.259-17.411-1.973-6.648-2.805-12.463-2.93-16.582-0.125-4.1189 0.418-6.5449 1.343-6.6941z"/>
  <path d="m273.02 110.35c-0.457-1.092 0.802-3.188 3.569-5.618 2.767-2.427 7.066-5.1487 12.596-7.1548 4.537-1.6436 9.897-2.7817 15.738-2.9966 5.023-0.18549 9.915 0.326 14.371 1.2885 4.456 0.9635 8.476 2.3734 11.812 3.8971 3.338 1.5258 5.994 3.1568 7.788 4.5778 1.794 1.42 2.728 2.621 2.66 3.405-0.069 0.784-1.129 1.083-2.955 1.057-1.825-0.025002-4.418-0.365-7.575-0.774-3.158-0.41-6.882-0.884-10.974-1.197-4.092-0.312-8.552-0.459-13.177-0.288-5.38 0.19701-10.391 0.804-14.806 1.568-5.39 0.93-9.9 2.065-13.194 2.674-3.295 0.609-5.394 0.653-5.853-0.439z"/>
  <path d="m307.77 99.648c-4.629 3.326-6.944 13.304-8.101 134.15s-1.736 186.26 2.315 210.66c4.05 24.392 4.05 2.218 4.918-6.652 0.86798-8.87 5.497-341.48 0.86798-338.16z" stroke-width="null"/>
 </g>
</svg>
